<?xml version="1.0" encoding="utf-8"?>
<!-- Generator: Adobe Illustrator 19.0.0, SVG Export Plug-In . SVG Version: 6.00 Build 0)  -->
<svg version="1.1" id="Layer_1" xmlns="http://www.w3.org/2000/svg" xmlns:xlink="http://www.w3.org/1999/xlink" x="0px" y="0px"
	 viewBox="0 0 243.8 341.5" style="enable-background:new 0 0 243.8 341.5;" xml:space="preserve">
<style type="text/css">
	.st0{fill:#FEFEFE;}
	.st1{fill:#AFBEFE;}
</style>
<g>
	<g>
		<path class="st0" d="M212.2,0.5c10.2,0,20.4,0.1,30.5-0.1c1.9,0,2.2,0.3,2.2,2.2c-0.1,56.8-0.1,113.6-0.1,170.4
			c0,55.6,0,111.2,0.1,166.9c0,2.3-0.6,2.6-2.7,2.6c-79.8-0.1-159.6-0.1-239.4,0c-1.9,0-2.4-0.4-2.4-2.4C0.6,227.8,0.6,115.4,0.5,3
			c0-2.2,0.6-2.5,2.6-2.5c69.5,0.1,139.1,0,208.6,0c-0.3,2-2.2,2.8-3.5,3.9c-14.1,11.6-29.7,20.9-44.7,31.1
			c-6.8,4.6-13.5,9.2-20.3,13.9c-1.4,1-2.8,1.7-4.5,1.6c-1.1-0.1-2.1,0.4-3.1,0.8c-8.3,3.4-16.9,6.2-25.4,9
			c-1.9,0.6-3.6,1.4-4.4,3.3c-1.1,2.4-2.8,2.6-5.2,2.3c-14.3-2.4-28.7-4.8-43.1-6.8c-12-1.7-24-4.2-36.1-5
			c-4.3-0.3-8.6-1.5-12.9-2.1c-0.5-0.1-1.1-0.3-2.1,0.2c1.8,2.3,3.4,4.6,5.3,6.7c12,12.7,23.3,26,34.7,39.1c0.7,0.9,1.3,1.8,1.3,2.9
			c-0.1,3.4,0.6,6.7,0.6,10.1c0.1,13.1,0.8,26.1,1.2,39.2c0.1,4.1,0.4,8.2,0.4,12.2c0,2.9,0.5,3.4,3.4,3.8
			c5.8,0.8,11.6,0.9,17.3,1.7c1,0.1,2.5-0.3,2.9,0.9c0.4,1.3-1.1,1.9-2,2.6c-7.5,6.2-15.3,12.1-22.3,18.8
			c-10.5,10.1-21.6,19.4-32.7,28.8c-2.7,2.2-4.4,4.9-5.3,8.3c-1.8,6.8-3,13.7-3.6,20.6c-0.6,7.1-2.5,13.9-3.4,21
			c-0.6,4.3,0.6,7.3,3.8,10c10.7,9,20.5,19,31.2,28.1c8.5,7.2,16.8,14.7,25.4,21.9c3.4,2.9,6.9,5.6,10.6,8.2c1.9,1.3,3.9,2,6.1,2
			c7.3-0.2,14.5,1.1,21.8,0.6c13.4-1,26.8-1.1,40.3-1.1c3.4,0,6.5-1.2,9.6-2.9c14.7-7.8,29.2-16,44-23.4c3.2-1.6,6.4-3.5,9.6-5.1
			c2.2-1.1,2.2-1.4,0.3-3c-5.8-5-12-9.5-18-14.1c-3.3-2.6-6.4-5.4-9.6-8c-1.9-1.5-2.4-3.3-1.8-5.7c6.3-29.1,13-58.2,19.3-87.3
			c2.9-13.2,6.1-26.4,8.5-39.7c0.9-4.6,2.8-7.7,7.1-9.7c9.4-4.5,18.2-10.3,27-16c2.9-1.9,2.9-1.9,0.5-4.5c-3.1-3.4-5-7.6-7.5-11.3
			c-7.9-11.5-14.2-23.9-22-35.4c-2.7-4-3.1-8.1-2.6-12.4c0.6-5.3,0.7-10.7,0.8-16c0.1-8.1,1.5-16.1,2-24.1c0.3-4.8,0.6-9.6,0.6-14.4
			C211.2,4,211.2,2.2,212.2,0.5z"/>
		<path class="st1" d="M212.2,0.5c-0.4,10.5-0.4,21.1-2.1,31.5c-1,6.2-0.6,12.5-1,18.7c-0.3,4.2-0.4,8.5-0.7,12.7
			c-0.2,3,0.4,5.6,2.2,8.1c5.8,8.2,10.2,17.3,15.7,25.7c3.9,6,7.7,12,11.5,18.1c1.3,2,2.7,3.8,4.5,5.4c1.1,1,1.1,1.6-0.2,2.4
			c-8.8,5.7-17.6,11.4-26.9,16.3c-2,1.1-4,2.2-6,3.2c-1.2,0.6-1.7,1.4-1.9,2.7c-1.6,7.8-3.3,15.7-5.1,23.5
			c-2.5,11.2-5.1,22.5-7.5,33.7c-4.9,22.1-9.7,44.2-14.6,66.3c-0.6,2.6-0.7,5.5-1.8,7.9c-1.2,2.8,0.3,4,1.9,5.4
			c6.3,5.3,12.7,10.4,19.3,15.4c3.2,2.4,6.4,5,9.6,7.6c1.4,1.1,0.8,1.7-0.4,2.3c-3.2,1.6-6.4,3.4-9.6,5c-16,8-31.5,16.8-47.3,25.1
			c-2.9,1.5-5.9,2.1-9.1,2.1c-5.7,0-11.5,0-17.2,0c-6.9,0.1-13.8,0.6-20.6,1c-8,0.5-16-0.7-23.9-0.5c-3.4,0.1-6-1.9-8.5-3.9
			c-11.7-9.2-22.8-19.3-34.1-29c-7.6-6.5-14.8-13.3-22.1-20.1c-3.4-3.2-7-6.3-10.5-9.4c-1.7-1.5-2.4-3.3-2.2-5.5
			c0.5-5.2,1.1-10.4,2.3-15.5c1.5-6.2,1.5-12.5,2.6-18.7c0.9-5,2-10,3.8-14.6c1.3-3.3,4.8-5.1,7.4-7.4c5.4-4.8,11.3-9.1,16.5-14.1
			c12-11.4,24.5-22.1,37.8-32.8c-5.2-0.5-9.9-0.9-14.6-1.3c-2.7-0.2-5.4-0.6-8-1c-1.7-0.3-2-1.1-2-2.6c-0.1-7.5-0.1-15.1-0.7-22.6
			c-0.4-4.8-0.5-9.6-0.5-14.4c0-3.5-0.6-7-0.4-10.5c0.3-5.2-0.6-10.3-0.6-15.5c0-1.1-0.5-1.8-1.2-2.6C39.7,92,33.6,85.3,28,78
			c-3.3-4.2-7.5-7.6-11-11.7c-3.6-4.3-7.5-8.3-11-12.7c-0.4-0.6-1.1-1.2-0.7-1.9c0.4-0.8,1.3-0.4,2-0.3c9.1,1.8,18.4,2.4,27.6,3.9
			c9.6,1.6,19.3,2.7,28.8,4.5c9.8,1.8,19.8,3.1,29.6,4.6c2.8,0.4,5.5,1,8.2,1.5c1.6,0.3,2.7,0.1,3.4-1.7c0.7-1.9,2.1-3.1,4.3-3.7
			c9-2.9,17.8-6.7,26.9-9.3c10.6-3,18-10.6,26.8-16.1c11.2-7,22.1-14.4,32.9-21.9c5.5-3.9,10.7-8.3,16-12.5
			C211.8,0.5,212,0.5,212.2,0.5z"/>
		<path class="st0" d="M137.9,55.8c0.7,0,1.3,0.5,1.9,0.9c18.4,12.9,36.8,25.9,55.3,38.7c8.2,5.7,16.8,10.8,24.9,16.8
			c3.9,2.9,7.9,5.7,12,8.4c1.7,1.2,1.6,1.8-0.1,3c-12.9,9.1-26.9,16.3-40.5,24.2c-5.6,3.2-7.7,8.3-10.1,13.6
			c-2.9,6.7-6.1,13.3-8.6,20.2c-0.3,0.8-0.3,1.9-1.7,1.1c-3.3-1.8-6.7-3.6-10-5.4c-3.2-1.7-5.2-4.4-6.2-7.9
			c-2.3-7.4-5.2-14.7-6.9-22.2c-4.8-22-11.5-43.4-17-65.2c-1.5-6.1-3.2-12.2-5-18.2c-0.7-2.2-0.6-3.5,2-4.3
			C131.2,58.6,134.5,57.1,137.9,55.8z"/>
		<path class="st0" d="M151.1,175c-0.5,2.6-2.6,4.5-4.2,6.6c-1.9,2.5-4.1,4.8-6.1,7.3c-1,1.2-1.8,1.5-3.3,0.3
			c-8.2-6.8-16.6-13.3-24.8-20.2c-3.5-2.9-7-4.6-11.8-4.4c-8.1,0.3-16.3,0.3-24.4,0c-5.7-0.2-11.3-1.4-16.9-1.9
			c-2.9-0.3-2.4-1.7-1.5-3.3c1.3-2.6,2.7-5.1,4.1-7.7c4.7-8.3,9.3-16.6,14.1-24.9c9.6-16.6,18.3-33.7,27.6-50.4
			c1.7-3.1,3.5-6.1,5.2-9.3c1.2-2.3,3.4-2.5,5.4-3.1c5.6-1.6,5.5-1.6,7,3.8C128,91.9,134.4,116,141,140c2.4,8.7,6,17,8.2,25.8
			C149.9,168.8,150.4,171.8,151.1,175z"/>
		<path class="st0" d="M86.2,169.1c1.8,0.2,4.2,0.4,6.5,0.6c1,0.1,1.3,0.9,1.7,1.6c5.9,9.7,11.6,19.6,17,29.7
			c5.6,10.3,11.9,20.3,18.1,30.2c1.1,1.8,2.2,3.8,3.4,5.5c0.9,1.2,0.8,2.1-0.3,3c-6.2,5.3-11.9,11.1-17,17.6c-1.3,1.6-2.6,1.8-4.4,1
			c-9-3.6-18-6.9-27-10.4c-15.6-6.1-31.4-11.5-47.1-17.1c-5.4-1.9-10.6-4.2-15.8-6.6c-1.7-0.8-1.8-1.4-0.4-2.6
			c8.2-6.9,16.5-13.8,24.6-20.9c11.8-10.4,23.2-21.3,35.8-30.8C82.3,169.1,82.3,169.1,86.2,169.1z"/>
		<path class="st0" d="M114.4,330.1c-34.3-30.7-63.5-66.2-94.2-101c4.5,1.2,8.4,2.5,12.2,4.3c1.8,0.9,3.7,1.6,5.5,2.2
			c9.1,3.1,17.6,7.6,26.6,10.7c14.9,5.3,29.6,11,44.5,16.5c8.1,3,16.2,6.1,24.4,9c1.8,0.6,1,1.4,0.6,2.4c-4,10.4-8.1,20.7-11.4,31.3
			c-2.4,7.6-5,15.1-7.4,22.7C114.9,329,114.8,329.7,114.4,330.1z"/>
		<path class="st0" d="M111.4,335.5c-9.2-0.4-17.7,0.5-26.2-0.6c-0.2,0-0.4-0.1-0.5,0c-4.9,1-8.2-1.9-11.8-4.6
			c-10.1-7.9-19.4-16.7-29.3-24.9c-9.6-8-18.5-16.6-27.6-25c-2.1-2-4.3-3.9-6.6-5.6c-2-1.5-0.9-3.5-0.6-4.9c1.6-8.6,1.8-17.4,3.2-26
			c0.6-3.6,1.7-7.2,2.6-10.8c0.4-1.7,1.1-1,1.8-0.2c9.4,10.8,18.7,21.6,28.1,32.4c6.3,7.2,12.8,14.3,19.2,21.5
			c14.6,16.5,30.8,31.6,46.3,47.3C110.3,334.3,110.6,334.6,111.4,335.5z"/>
		<path class="st0" d="M17.2,58.1c28.1,2.9,55.5,9.2,83.8,12.8c-15.6,28.2-31,56-46.3,83.8c-0.2,0-0.4-0.1-0.6-0.1
			c0-0.9-0.1-1.9-0.1-2.8c-0.2-12.8-1.4-25.5-1.2-38.3c0.1-3.7-0.6-7.4-0.3-11.1c0.4-4.3-2.6-6.6-5-9.2c-10.1-11.2-20.2-22.5-30-34
			C17.4,59,17.4,58.8,17.2,58.1z"/>
		<path class="st0" d="M119.3,333.2c1.2-3.1,2.7-6.6,3.6-10c1.5-5.7,3.7-11.3,5.1-17c2.1-8.5,5.8-16.5,8.9-24.7c0.8-2,1.6-4,2.3-6.1
			c0.5-1.4,1.4-1.7,2.7-1.5c8.9,1.8,17.8,3.6,26.7,5.4c0.6,0.1,1.1,0.2,1.6,0.7c8.6,9.1,18.8,16.4,28.5,24.1
			c1.7,1.4,1.2,1.8-0.1,2.6c-3.7,2-7.3,3.9-11,5.9c-13.2,7-26.3,14.1-39.5,21.1c-1.9,1-4,1.2-6,1.2c-4.9,0-9.8,0-14.7,0
			C124.6,334.9,121.8,335.3,119.3,333.2z"/>
		<path class="st0" d="M206.8,11c-1.1,6.4-0.4,12.3-0.7,18.2c-0.3,5.5-1,10.9-1.8,16.4c-0.4,2.9-0.4,5.8-0.7,8.6
			c-0.4,3.8-0.3,7.8-0.7,11.6c-0.2,2.2,0.5,4.1,1.7,5.9c8.2,12.9,16.4,25.8,24.2,38.9c0.1,0.2,0.1,0.5,0.2,0.9c-1.3-0.1-2-1-2.8-1.5
			c-15.6-11-31.1-22.3-46.9-33.1c-8.9-6.1-18-11.7-26.8-18c-2-1.4-4-2.7-6-4.1c-1-0.7-1.4-1.2,0-2.1c3.8-2.5,7.5-5.3,11.3-7.8
			c12.4-8.1,24.1-17.2,36.2-25.8C197.9,16.4,202.2,13.9,206.8,11z"/>
		<path class="st0" d="M103.3,170.1c1.8-0.1,3.1,0.6,4.4,1.7c7.8,6.3,15.9,12.2,23.6,18.6c7.4,6.2,15.2,12,22.9,17.7
			c3,2.2,2.7,5.7,3.3,8.8c1.3,7.6,2.9,15.2,3.6,22.9c0.7,6.4,1.6,12.8,2.4,19.2c0.5,3.4,1.1,6.8,1.4,10.2c0.1,1.3,1.1,3.4-0.3,3.8
			c-1.6,0.4-3.7,0-4.8-2.1c-1.6-2.9-3.4-5.8-5.1-8.6c-6.3-10.4-12.7-20.7-18.9-31.1c-7.7-13-15.3-26-23-39
			c-3.7-6.3-7.5-12.6-11.2-18.9c-0.5-0.9-1.6-1.9-1-2.9C101.1,170,102.4,170.2,103.3,170.1z"/>
		<path class="st0" d="M201.2,148.1c-1.8,8.1-3.3,15.6-5,23c-4.7,20.3-9.2,40.6-13.5,61c-2.8,13.3-5.8,26.6-8.7,39.9
			c-0.2,1-0.5,1.9-1.8,1.9c-1.6,0-1.3-1.1-1.4-2.1c-1.2-8.2-2.6-16.4-3.6-24.6c-0.9-7.3-1.6-14.7-2.9-22c-0.4-2.5-0.7-5-1.1-7.5
			c-0.4-2.4-0.4-4.3,1.2-6.6c2.5-3.6,4-7.9,5.8-11.9c4.5-10,8.6-20.1,13.4-30c1.7-3.4,3.2-6.9,4.7-10.4c1-2.5,2.5-4.4,5-5.8
			C195.7,151.6,198.2,149.9,201.2,148.1z"/>
		<path class="st0" d="M153.9,271c-9.7-1.8-19.1-3.3-27.8-7.5c-1.9-0.9-3.9-1.5-5.9-2.1c-1.6-0.5-1.6-1.3-0.5-2.3
			c2.4-2.2,4.6-4.6,7-6.8c3.1-2.7,5.9-5.6,8.8-8.5c0.7-0.7,1.2-1.3,2,0C143.1,252.7,148.6,261.5,153.9,271z"/>
		<path class="st0" d="M169.6,188c-1.9,0.7-1,2.2-1.5,3.3c-2.3,4.7-4.5,9.5-6.7,14.2c-0.4,0.9-0.7,1-1.6,0.4
			c-5-3.8-10.1-7.6-15.1-11.4c-0.7-0.5-0.8-0.7-0.1-1.8c1.9-3.1,4.8-5.3,6.7-8.3c0.2-0.4,0.6-0.7,0.8-1.1c2.4-3.8,2.3-3.7,6.4-1.3
			c3.1,1.9,6.4,3.4,9.6,5.1C168.5,187.4,168.9,187.6,169.6,188z"/>
	</g>
</g>
</svg>
